<?xml version="1.0" standalone="no"?>
<!DOCTYPE svg PUBLIC "-//W3C//DTD SVG 20010904//EN"
 "http://www.w3.org/TR/2001/REC-SVG-20010904/DTD/svg10.dtd">
<svg version="1.0" xmlns="http://www.w3.org/2000/svg"
 width="1000.000000pt" height="200.000000pt" viewBox="0 0 1000.000000 200.000000"
 preserveAspectRatio="xMidYMid meet">

<g transform="translate(0.000000,200.000000) scale(0.100000,-0.100000)"
fill="#000000" stroke="none">
<path d="M1915 1639 c349 -61 628 -189 793 -363 142 -150 183 -307 122 -467
-11 -29 -17 -55 -15 -57 9 -9 110 65 162 117 73 73 103 138 103 220 -1 146
-104 267 -322 376 -216 108 -613 197 -870 194 l-83 -1 110 -19z"/>
<path d="M3745 1515 c-80 -43 -135 -130 -137 -215 -1 -43 3 -55 25 -78 l26
-26 26 24 c30 28 31 40 5 82 -34 56 -20 111 40 162 38 32 54 32 81 5 30 -30
22 -89 -32 -254 -36 -109 -43 -143 -43 -213 -1 -82 0 -84 32 -113 62 -56 152
-33 214 56 36 51 48 56 48 20 0 -34 25 -82 49 -95 36 -19 95 -11 142 18 184
118 321 463 243 614 -18 34 -31 35 -75 5 -40 -27 -42 -55 -13 -127 12 -30 18
-71 18 -126 1 -73 -3 -87 -36 -156 -61 -123 -160 -199 -198 -153 -23 28 -4
158 55 375 30 113 55 206 55 208 0 4 -58 2 -89 -4 -40 -8 -47 -24 -112 -257
-68 -247 -114 -337 -172 -337 -58 0 -59 40 -3 210 67 204 67 276 3 347 -40 42
-103 54 -152 28z"/>
<path d="M6615 1516 c-95 -41 -156 -163 -118 -235 23 -44 34 -47 68 -19 l27
24 -26 38 c-14 21 -26 42 -26 47 0 23 22 60 45 75 24 16 29 16 85 -1 40 -12
72 -16 100 -11 l42 7 -51 -57 c-67 -76 -86 -120 -116 -269 -27 -138 -41 -173
-81 -204 -52 -41 -97 -15 -108 63 -8 53 -26 59 -70 25 -48 -38 -26 -101 47
-128 44 -17 137 -13 182 8 90 42 142 132 175 306 12 61 26 133 31 161 6 29 26
78 45 110 40 66 34 90 -15 61 -36 -21 -58 -21 -104 -2 -44 18 -92 19 -132 1z"/>
<path d="M7020 1492 c-30 -30 -44 -57 -69 -138 -33 -108 -51 -132 -103 -143
-38 -8 -53 -41 -18 -41 32 0 42 -40 31 -129 -8 -66 -7 -82 9 -118 21 -49 44
-63 100 -63 48 0 87 18 140 66 36 33 39 34 45 14 3 -11 18 -34 32 -50 45 -54
126 -35 189 44 36 44 44 45 44 3 0 -50 24 -77 69 -77 29 0 49 10 98 49 l61 50
11 -31 c18 -51 39 -68 86 -68 43 0 110 36 150 80 24 27 30 25 45 -10 30 -73
144 -93 235 -41 48 27 138 114 180 174 11 15 34 31 52 36 l31 9 -29 -61 c-33
-70 -37 -131 -13 -166 27 -38 90 -25 165 33 45 35 59 42 59 28 0 -9 9 -32 20
-49 30 -50 73 -46 144 12 31 25 58 45 61 45 3 0 5 -15 5 -32 0 -59 10 -63 91
-42 12 3 18 22 22 74 7 84 15 100 80 168 81 82 95 69 51 -45 -33 -87 -38 -178
-10 -199 45 -32 115 -12 187 53 22 20 41 34 42 32 1 -2 9 -17 17 -34 20 -39
59 -60 94 -51 15 4 47 25 72 48 47 43 49 43 34 -12 -8 -29 -17 -39 -47 -49
-57 -20 -119 -62 -137 -92 -39 -65 -5 -139 64 -139 76 0 172 95 209 206 11 33
22 45 67 68 61 32 96 69 87 92 -5 12 -10 11 -32 -9 -35 -32 -80 -61 -87 -55
-6 6 43 268 56 304 11 28 8 29 -46 8 -39 -15 -44 -15 -65 0 -30 21 -92 20
-135 0 -55 -26 -121 -107 -141 -172 -18 -60 -51 -105 -94 -128 -23 -11 -29
-11 -39 1 -9 11 -4 36 24 118 40 117 44 156 18 180 -38 35 -94 14 -179 -66
-29 -27 -53 -45 -53 -40 0 5 9 35 19 66 11 32 16 57 11 57 -37 0 -109 -24
-115 -38 -24 -57 -55 -159 -55 -177 0 -34 -86 -105 -110 -90 -18 11 -10 72 25
186 19 62 33 114 31 116 -2 2 -30 -2 -62 -9 l-58 -13 -28 -85 c-15 -47 -27
-95 -28 -107 0 -23 -76 -93 -102 -93 -21 0 -38 21 -38 47 0 12 18 73 40 134
22 62 40 116 40 121 0 20 -37 5 -53 -21 -22 -38 -74 -81 -96 -81 -16 0 -17 4
-8 39 25 93 -64 96 -112 4 -15 -30 -14 -68 4 -83 23 -19 19 -31 -30 -87 -81
-92 -168 -115 -215 -56 -22 29 -27 63 -7 63 6 0 39 13 72 29 108 50 144 123
89 178 -22 22 -32 25 -79 21 -94 -8 -174 -84 -201 -191 -17 -65 -70 -117 -120
-117 -52 0 -56 34 -20 156 23 77 24 79 57 82 37 4 49 15 49 50 0 18 -5 22 -31
22 -26 0 -30 3 -24 18 14 38 38 132 34 136 -3 3 -29 -1 -59 -7 l-55 -12 -24
-73 c-21 -62 -27 -72 -47 -72 -13 0 -24 -6 -24 -12 0 -7 -3 -23 -6 -35 -5 -17
-2 -23 10 -23 20 0 20 -5 -4 -93 -16 -58 -27 -78 -56 -104 -41 -36 -79 -43
-86 -15 -6 22 14 114 46 215 28 87 25 91 -48 55 l-44 -21 -27 21 c-32 25 -81
28 -129 8 -73 -30 -155 -129 -171 -203 -12 -57 -106 -124 -146 -103 -16 9 -19
22 -19 88 0 83 -19 130 -60 152 -21 11 -21 12 9 45 17 19 39 64 50 100 11 36
25 74 31 85 13 24 47 26 70 5 16 -14 19 -14 32 7 28 43 30 66 9 87 -32 32 -68
26 -111 -17z m2556 -287 c15 -23 15 -30 0 -91 -24 -93 -51 -142 -83 -150 -41
-11 -58 7 -61 64 -4 63 27 141 70 177 37 31 53 31 74 0z m-2142 -1 c19 -49 -9
-155 -59 -220 -29 -37 -72 -46 -95 -19 -28 34 16 181 70 235 24 24 75 27 84 4z
m710 -32 c0 -29 -8 -50 -23 -66 -25 -26 -78 -52 -87 -43 -11 10 17 106 38 132
14 19 28 25 47 23 24 -3 26 -7 25 -46z m1360 -369 c-4 -16 -18 -50 -33 -78
-20 -40 -32 -51 -54 -53 -90 -11 -65 87 36 137 54 27 59 27 51 -6z"/>
<path d="M8717 1397 c-9 -22 -14 -43 -11 -48 9 -15 71 -21 94 -9 19 10 50 64
50 87 0 4 -26 8 -58 8 l-58 1 -17 -39z"/>
<path d="M493 1385 c-77 -52 -156 -133 -184 -190 -37 -76 -34 -181 6 -253 98
-179 404 -331 805 -401 132 -23 318 -41 405 -40 l60 1 -80 13 c-398 64 -727
215 -882 403 -115 141 -147 315 -84 457 11 25 17 45 13 45 -4 0 -31 -16 -59
-35z"/>
<path d="M5495 1407 l-50 -12 -24 -72 c-21 -63 -27 -73 -47 -73 -13 0 -24 -6
-24 -12 0 -7 -3 -23 -6 -35 -5 -17 -2 -23 10 -23 20 0 20 -5 -4 -93 -16 -59
-27 -78 -57 -104 -41 -35 -62 -40 -81 -21 -19 19 -14 51 28 169 22 62 40 116
40 121 0 20 -37 5 -53 -21 -23 -39 -74 -81 -97 -81 -17 0 -18 4 -8 30 34 99
-61 110 -111 13 -15 -30 -14 -68 4 -83 25 -20 18 -35 -44 -100 -45 -48 -64
-61 -82 -58 -19 2 -25 10 -27 36 -3 26 38 188 65 258 8 20 -19 18 -72 -8 l-45
-22 -23 22 c-50 47 -155 15 -233 -71 -63 -70 -89 -166 -63 -234 19 -51 48 -73
96 -73 40 0 49 5 99 55 31 30 57 55 60 55 2 0 4 -11 4 -25 0 -15 7 -39 15 -55
13 -25 21 -30 54 -30 30 0 50 9 88 39 51 40 138 130 163 169 8 12 29 26 47 31
l31 9 -29 -61 c-33 -70 -37 -131 -13 -166 27 -37 90 -25 164 32 l58 46 11 -31
c18 -51 39 -68 86 -68 44 0 92 25 147 78 l27 25 11 -29 c20 -52 49 -74 97 -74
39 0 49 5 100 55 31 30 58 55 60 55 2 0 3 -11 3 -25 0 -15 7 -39 15 -55 13
-25 22 -30 54 -30 24 0 49 8 67 22 57 42 104 92 104 110 0 25 -7 23 -47 -12
-18 -16 -45 -30 -58 -30 -22 0 -25 4 -25 39 0 32 40 188 65 254 10 24 -14 22
-70 -5 l-45 -22 -23 22 c-64 60 -212 -11 -276 -133 -12 -22 -21 -48 -21 -59 0
-30 -75 -96 -109 -96 -57 0 -63 43 -22 175 17 56 21 60 52 63 37 4 49 16 49
50 0 18 -6 22 -30 22 -16 0 -30 1 -30 3 0 1 9 31 20 65 21 68 25 93 13 91 -5
0 -30 -6 -58 -12z m-731 -203 c19 -49 -9 -155 -59 -220 -27 -36 -69 -46 -93
-22 -30 30 5 161 60 224 33 37 81 47 92 18z m1122 -10 c15 -58 -19 -167 -69
-221 -22 -25 -66 -30 -85 -11 -30 30 5 161 60 224 38 44 84 48 94 8z"/>
<path d="M1202 1380 c-60 -37 -104 -138 -82 -190 16 -39 41 -46 62 -20 16 20
16 23 -3 60 -18 35 -19 41 -6 73 15 34 50 67 74 67 6 0 19 -7 28 -17 21 -21
15 -71 -26 -190 -35 -104 -46 -197 -27 -233 18 -33 62 -54 96 -45 15 4 48 29
75 56 44 46 47 48 47 23 0 -29 49 -84 76 -84 35 0 104 42 144 88 23 25 59 83
82 128 34 70 41 93 45 165 7 126 -13 161 -72 123 -29 -19 -31 -37 -9 -89 8
-21 16 -67 16 -102 0 -52 -6 -76 -31 -128 -49 -99 -118 -149 -152 -109 -16 20
-3 106 46 287 19 70 35 134 35 142 0 11 -11 15 -40 15 -50 0 -55 -9 -109 -203
-55 -197 -87 -257 -137 -257 -33 0 -37 27 -13 105 55 188 60 211 54 252 -9 60
-51 103 -102 103 -21 0 -53 -9 -71 -20z"/>
<path d="M1820 1154 c-50 -45 -69 -99 -50 -144 9 -22 18 -30 33 -28 32 5 44
33 24 56 -23 25 -22 65 3 87 18 16 25 17 74 5 30 -7 66 -10 80 -8 34 7 33 -2
-5 -38 -45 -42 -69 -95 -90 -201 -10 -51 -25 -107 -34 -123 -14 -27 -51 -60
-67 -60 -19 0 -48 42 -48 69 0 43 -18 48 -52 14 -26 -26 -28 -34 -19 -52 26
-47 125 -66 194 -37 38 15 84 66 104 116 8 19 26 90 39 158 15 81 33 140 49
168 14 23 25 45 25 48 0 10 -36 6 -47 -5 -8 -8 -22 -8 -49 0 -76 21 -120 15
-164 -25z"/>
<path d="M2178 1173 c-23 -26 -43 -71 -62 -134 -17 -60 -41 -89 -74 -89 -32 0
-35 -16 -6 -34 24 -17 25 -19 18 -101 -6 -81 -6 -84 19 -109 29 -28 81 -35
120 -15 37 19 87 72 87 92 0 17 -5 15 -35 -12 -39 -34 -79 -41 -89 -15 -3 9
-6 40 -6 71 0 46 -4 59 -28 83 l-28 28 22 25 c12 15 29 51 38 80 20 67 39 86
69 68 18 -12 22 -11 34 5 8 11 13 30 11 44 -3 21 -9 26 -39 28 -24 2 -40 -3
-51 -15z"/>
<path d="M7743 640 c-146 -15 -468 -85 -513 -111 -9 -5 55 -6 150 -3 188 7
497 -8 615 -30 269 -50 561 -62 765 -32 97 15 279 59 307 74 6 4 -90 7 -215 7
-206 0 -241 3 -377 28 -319 60 -374 68 -510 72 -77 2 -177 0 -222 -5z"/>
<path d="M6275 479 c-115 -11 -229 -32 -379 -70 -175 -44 -176 -51 -6 -44 211
8 507 -9 685 -39 299 -51 573 -53 801 -6 79 16 234 59 234 64 0 1 -107 1 -237
1 -237 1 -239 1 -463 43 -338 64 -426 71 -635 51z"/>
</g>
</svg>
